/* XPM */
static char *d82e199ef7af416cc698ef277fd47a7a1kamcVYVxTlOkD6Y[] = {
/* columns rows colors chars-per-pixel */
"64 64 183 2 ",
"   c #040605",
".  c #060806",
"X  c #090D06",
"o  c #0B0E09",
"O  c #0C1306",
"+  c #0F1807",
"@  c #0E1209",
"#  c #0F1808",
"$  c #101907",
"%  c #11150C",
"&  c #141B0B",
"*  c #191E0F",
"=  c #151710",
"-  c #161B11",
";  c #1A1E13",
":  c #16210C",
">  c #1A240E",
",  c #1E290E",
"<  c #1D2313",
"1  c #1E2911",
"2  c #1F2219",
"3  c #212C0F",
"4  c #27320F",
"5  c #2A350E",
"6  c #212515",
"7  c #232B14",
"8  c #292F17",
"9  c #23251A",
"0  c #262A1B",
"q  c #292D1C",
"w  c #263113",
"e  c #2A3315",
"r  c #2E3A15",
"t  c #2D341B",
"y  c #2F3819",
"u  c #323D16",
"i  c #31361C",
"p  c #343C1C",
"a  c #242720",
"s  c #262A21",
"d  c #2C2D22",
"f  c #2F3123",
"g  c #2F3128",
"h  c #323424",
"j  c #353A23",
"k  c #393D25",
"l  c #33352A",
"z  c #383728",
"x  c #36392A",
"c  c #3B3D2B",
"v  c #3C3D31",
"b  c #413F2B",
"n  c #354216",
"m  c #36401B",
"M  c #3A431D",
"N  c #3D491D",
"B  c #3C4423",
"V  c #3F4821",
"C  c #3E422B",
"Z  c #3F4031",
"A  c #414B1E",
"S  c #44501F",
"D  c #4B591F",
"F  c #505C1F",
"G  c #53601F",
"H  c #404626",
"J  c #434C24",
"K  c #42442C",
"L  c #454B2B",
"P  c #484E2C",
"I  c #465123",
"U  c #4A5325",
"Y  c #4E5B23",
"T  c #47522B",
"R  c #4B532B",
"E  c #515D24",
"W  c #515B29",
"Q  c #434433",
"!  c #484633",
"~  c #464934",
"^  c #4A4B35",
"/  c #45453A",
"(  c #474839",
")  c #4C4C3A",
"_  c #504F3C",
"`  c #544E36",
"'  c #4E5233",
"]  c #4F503D",
"[  c #515535",
"{  c #555A34",
"}  c #53533D",
"|  c #5A553D",
" . c #555A3B",
".. c #5A5B3E",
"X. c #556324",
"o. c #596624",
"O. c #556229",
"+. c #5A652C",
"@. c #5D6A2C",
"#. c #5B6630",
"$. c #5B6830",
"%. c #68752D",
"&. c #636E30",
"*. c #657135",
"=. c #687534",
"-. c #6D7B33",
";. c #657138",
":. c #6D7A39",
">. c #727D3D",
",. c #4D4E40",
"<. c #4F5141",
"1. c #545442",
"2. c #595743",
"3. c #575845",
"4. c #5A5A44",
"5. c #565748",
"6. c #5C5C4A",
"7. c #625D43",
"8. c #615F49",
"9. c #5E6041",
"0. c #5F6C42",
"q. c #636247",
"w. c #696247",
"e. c #63624D",
"r. c #6A654C",
"t. c #68684F",
"y. c #70684C",
"u. c #6F7A41",
"i. c #6C7540",
"p. c #717E44",
"a. c #757F48",
"s. c #656451",
"d. c #6A6752",
"f. c #6C6A54",
"g. c #706D56",
"h. c #73705A",
"j. c #7C874E",
"k. c #7B8649",
"l. c #788656",
"z. c #7D8A54",
"x. c #838C51",
"c. c #858E62",
"v. c #8A9462",
"b. c #909C64",
"n. c #909C6A",
"m. c #919E71",
"M. c #95A06A",
"N. c #93A077",
"B. c #9BA77D",
"V. c #98A374",
"C. c #9AA780",
"Z. c #9EAB87",
"A. c #A5AD89",
"S. c #A6B289",
"D. c #ACB790",
"F. c #B2BC98",
"G. c #B3BEA4",
"H. c #B5C1A9",
"J. c #BCC6AB",
"K. c #BFCABA",
"L. c #BBC6B3",
"P. c #C2CCB5",
"I. c #C3CEBA",
"U. c #C6D0BF",
"Y. c #C9D2BE",
"T. c #C6D0C0",
"R. c #CBD5C6",
"E. c #CDD6CD",
"W. c #CDD6CA",
"Q. c #CFD9CD",
"!. c #D0D9CF",
"~. c #CFD9D1",
"^. c #D1DAD3",
"/. c #D3DCD3",
"(. c #D2DBD4",
"). c #D1DAD4",
"_. c #D3DCD5",
"`. c #D4DDD5",
"'. c #D4DDD6",
"]. c #D5DED6",
"[. c #D4DDD0",
"{. c #D6DFD8",
"}. c #D7E0D7",
/* pixels */
"O O $ : , , $ > , & & & , e r 3 w M M e 7 w e r u r r n N J J S I E X.-.z.l.z.z.z.C.Z.H.K.K.~.).).E._._.].].]._.).^.^.^.)._.).^.",
"O O $ + $ & & # & $ & # : & , w > 3 r N e w 5 3 r n p u u J M A I Y G %.:.;.z.p.m.N.C.H.L.G.E.E.I.R._.].].].].]._.).^.)._._._.~.",
"O O O O O $ $ $ O $ & O O & : w w > > n n 4 5 5 M  .B r n n n N A F o.o.X.@.;.@.=.u.B.n.v.S.T.G.U.!.W.].].].].].]._._.).].]./.R.",
"X O X X O O O $ & # & & $ $ $ $ > w > , n r u r S 0.T r n n A Y Y Y X.D X.X.@.E Y @.-.=.:.b.B.V.A.I.P.R.].}.].{.{././.].].].E.^.",
"X X X O X O O O & : & # $ : & : : 3 r e r r N N I I Y N N I I I O.O.Y Y Y Y X.Y Y +.$.X.@.=.k.p.b.F.S.M.D.Y.P.R.R.Y.[.R.J.P.Q.].",
"X O O O O O # & > > , , > , , 7 e u n N N N I I V N I Y O.W Y O.&.=.+.+.*.+.Y U O.W #.O.+.+.@.@.>.a.i.&.&.j.j.x.v.v.c.u.>.j.A.F.",
"X O O $ $ # $ $ > > 1 1 7 7 7 7 7 w w r r r u p e e M I M J B B M u J L L L P R { {  .[ ' ^ L L R R T J I J W R R L R R J J ^ 4.",
".   X O O X O O # X @ % & % & & > > $ * e e 7 , w e < * 1 < 2 2 - 1 < 6 8 ; < 8 7 8 t q 0 0 0 0 t 0 6 0 6 < 7 6 < e i t 6 2 9 9 ",
". . X X   X O O $ # @ % > * * * & & $ # , , * % 1 7 7 7 2 ; 2 9 2 2 - - < 6 7 t 9 9 0 0 0 0 0 6 0 0 9 2 9 6 6 6 6 6 8 q q 0 q q ",
"X X X X X X O # , & $ % * 1 > % % > > & & > 6 ; ; 7 t t q f l x h f q 0 t p j f k k C Q Q C C j c c x h f f h h j h j K ^ c c K ",
"o X X X o X @ @ % % > % % - - - - - 1 > * < 0 0 0 0 t q f l Z ( Z c j h i p k j C K ~ ( C L ~ B K K C B B k K C B k H ) 1.Q ^ ^ ",
"o o @ o o o @ @ % $ , - - - - - < < < & - 9 f h q 8 t c Q C ( ] ^ c j c i p J B J L P L B B L L I R J B B C K ~ c j B ^ } ) ) ) ",
"o o @ @ @ @ @ @ % % > > * - < 2 - 1 2 - < 6 d h 8 8 h c C c C ^ C Q C C i t M J p L K K L I U J M M J R R J P ^ ^ k B ' } | 3.) ",
"o o @ @ @ % % % % > > & * < 9 9 2 - 7 < 1 0 h h 0 q k K Q ) ) ) ^ ( ~ C j u M J B ) } P R J t i h t 7 e J W L T ' K J [ } | 4.} ",
"@ @ # @ # % % & - % $ < 6 0 g d 0 2 1 < 0 h Q c j c C ^ 1.1.] } 4.1.4.C p u M V J [ ^ J J j C K L L B t e J U J L L P [ 3.6.8.| ",
"@ @ % % % & - - 2 - * 9 q g h f d 6 < 6 q c ( Q Q ^ 1.) 1.1.} } 1.} } C t e M B B L B I J H ~ L R R T B i t E J M M I [ ..q.8.} ",
"@ % % & ; 2 2 2 9 9 6 t h x x h g 0 7 q t Q ) ( ) ] 6.6.4.1.3.3.' L H B B t p J B B B J J P L J p m I L k t A J u M U [  .r.q.2.",
"@ % & * 9 0 9 < 0 0 7 8 z x x z h d q f j ) ] ] 1.3.e.e.6.} 3.^ L  .} H k t r J J T B J J H J M p t t I L t e M p B J R ..f.t.4.",
"% % * < 6 d 0 < q q 1 6 t h v x h h f f c ( ) ] 3.e.e.e.4.1.3.~  ...' ~ L j 0 p J B B J J B J V M V p p J j t M N B H ' q.t.t.2.",
"% & * < 0 h 6 6 6 1 > > 6 x Q c z x h h C ) ) 1.e.e.6.4.4.3.4.~ [ ' } J C j t y A J j p I V I J p V p p H k t M M J P ....f.f.3.",
"$ * > 6 d f < 1 6 6 1 1 q x Z c x c l c ( 1.1.6.s.s.4.1.4.} ' B L ^ L L } ^ C i e M J j J J M J J B B J J H j p B M J [ q.f.g.8.",
"$ $ - 6 0 q 0 < < * 1 6 7 h Q Q Q C l c ( ] <.3.s.e.4.1.4.} H B ) ) L } } ^ P L J N I R m J B i B B J U L L j B J M B  .f.f.f.e.",
"& * < < d l f 6 9 9 f l 0 f x Q Q Z x c Q ) ,.1.4.6.6.1.} ^ K k ' ) L 3.[ U M t t t M M B p B J J B J M B H j J V M J 9.f.d.f.f.",
"* * , 6 l h q 7 f h x v t h x Q Q Q c c ( ] <.1.4.6.6.1.] } ) C L C L } ' J i j i t t p I J p u p J M j H C B I B B H ' q.3.f.f.",
"* * , 0 h h 0 8 h h x x h t c Q ( ( Q Q ) 3.1.6.6.4.4.4.4.1.} ~ H H L ) R B J J J B j t M I J i M M p B L B B I J C ) T 6.2.r.h.",
"< * > q h h 7 8 h h t l h 8 t c ( ( K ^ ) 4.6.4.3.4.1.3.4.1.} K B B L H B J p t M J B j t J J M B M V J L B J J B ^ } [ 4.t.f.f.",
"> * < q 8 h q q f t f v h 8 i k ( ( c Q ) 4.6.1.1.6.4.6.q.3.} K C B M B i W B B I m B C t B B M B J M p B M I J B L L [ ..q.f.r.",
"- - 6 1 6 h t 0 8 t l Z h 8 t h C Q c ( ) 4.6.1.} ..7.w.y.8.1.( B t r M t e M M M j j p p M I M p M M p M J p M B B L L } q.f.r.",
"2 - 6 < 6 0 7 6 f z h x h t t h c Q c ( ^ 1.6.1.} } | 7.r.4.) K j t w r M M 7 8 k J J j t p I M t p i p M p M j K ^ } } } 6.f.d.",
"9 2 6 2 6 6 6 6 g l h h h 0 t i j Q K Q ^ ) ) ) ) | 4.7.w.| ^ Q c j t t 8 e p B B M M R B t J p m p B I M B J R P } } } } 3.f.f.",
"2 2 6 6 d d q f f g f q q < 7 7 i ( c c Q Q Q Q ^ | 7.w.w.| ) ^ C j k c h 0 7 M M p t M B p J p B J B m t t t p J J ' [ [ 3.s.e.",
"9 - < 0 0 6 % - % % % % % % * % % c c ( Q ( ( ( _ 7.7.7.w.| ( ^ C K ) L L L p 7 M p e y M p J p N N p i k K Q j i J P P ' e.6.4.",
"q - < 0 q 9 . .         X X $ %   z Q ( ( ) ( Q ^ 7.7.7.| | ( ^ H H B M p p I B M p t t M M M M A M p I J R ' K j M L J  .s.s.4.",
"q - > 6 f d o         . X . # X   z c c Q ) ) Q ^ | | ` | ^ K C j u p 7 6 6 7 V M p t i M M m A M t t 8 7 e J P C p J T 3.f.f.8.",
"9 2 ; 6 h g %         . .   @ .   x c c c ^ ^ ^ Q ^ Q K ^ Q Q C j r p q p M 0 7 p t t m M M M p t j k B j t e J B B B } 4.f.f.8.",
"0 9 ; 6 f d =           .   X X   l Q c Q ( Q Q ! Q Q Q Q Q ) K h e V i r M M 6 m p t M M M u t p B B J J k t M B M J 4.6.s.s.8.",
"d 0 6 6 h d - . .       . . X X   l Z x Q ( Q ( ) Q ^ ) K k C C j 7 M B p p p 7 p p M n u e p p M M e e m J i u H M B 4.6.s.6.6.",
"h q 9 q z l ; . . .     . X X X   l v v Q ) Q ) ) Q Q K C C Z C j 0 6 7 7 e r 8 p u p u 7 t M i m p p M t M i i M M J ' 4.s.6.2.",
"f h q h l l ; X X .     . . . X . l c c ( Q Q ) ^ ^ C K ( ( Q c x t q 0 0 p t p N M u e y i B j M r M p M J j p A M H ] 1.e.8.1.",
"d d 9 h z l ; o o X .   .   . .   g x x K x c ( Q Q c Q / ( Q c c j h j i e p M N u r p p p p i J t t p M i B A m B ^ 1.1.6.2.} ",
"g d 6 8 f g ; o o o . . . . . X . g x x x x Q c c c x c Q Q Q c x c j B t e u u u e 7 w n B k t m B p t t p A m p L ) ,.5.e.2.| ",
"d 0 6 0 0 s ; o o o .   . . . X . l x x x c Q c c c c c ^ ( Q c h j i t e e u r 7 6 t 8 1 p J j i M J B J A n p C H ) ,.) 8.4.2.",
"s 9 1 9 d d 2 @ @ o . . . . . . . g x x x z x c c c c c C K c j j t e 6 7 r w 7 0 t p M t e J c c t r r p e p B ~ ^ ) ) ( } | | ",
"d 9 < 0 d d 2 @ @ o . . . . . . . d l z l z x c c x x j c x f t r 7 w 7 e e 7 7 t r 7 w p t M C C k i p i i k ( ) ~ ( ) Q _ } 1.",
"s ; * q s d 2 @ @ o . . . . . . . g z l x x x x l l x h j x d 6 3 7 7 7 r w w 7 e t e r e t M k K Q c x x k C ( ^ Q ( ) ! } | _ ",
"a ; > 9 a a ; @ @ o . . . . . .   s h x l l x x x l x f t i t 6 , 7 7 1 r 7 7 6 7 p 8 e p M p j Q Q Q K K c K ( ^ ^ ) ) Q ^ ! Q ",
"0 ; & 2 0 a ; @ @ o . . . . . .   0 z l d g l h h f g g d q 0 6 > 3 7 > 7 7 7 7 7 e p t r e t j c c C c C Q Q ^ Q ( ) ) ( ^ ^ Q ",
"0 2 & < 0 0 ; @ @ o .   . .       0 z d g d d q 8 d h f d q q 1 1 > , , 7 w 1 7 w , > 7 6 8 q l j c Q ( Q K Q Q ( ( ) ) ( } ( Q ",
"2 ; % - 9 9 ; @ o o .   . .   .   9 h d d d d a 0 q g g d f q < * , , , 7 w 1 > > < - < 0 h l j l c Z Z c Z Z c ( v Q ( Q Q c c ",
"2 ; % % 2 9 - o X o .         .   2 d a a s d q 0 q d f d q 0 6 * % & , , e w 7 7 1 7 7 q h h t k x j x v Q c l Z v x Q c K c x ",
"2 ; % % & 2 - X X X . .           ; d 0 d q 0 9 6 0 0 8 8 0 6 1 - & $ & & , e e w w 1 7 h h 8 7 x c l x x c x z Z v v x h c b x ",
"; - % % $ < - X X X X X X .       6 0 9 0 0 9 9 2 2 < 7 7 1 1 < - < * & $ > w 3 r n 7 6 q t 8 t i i j l l l l j c c x x g l c c ",
"- - - % $ - & @ @ X X X X X . . . 2 0 < 9 9 9 9 2 1 1 7 7 7 7 > 1 1 , * $ * , , w r 7 w t 8 6 7 e t t h h f f z x c x x h l c c ",
"- & & # $ - & # % % @ o @ o % o . - < < < 6 9 9 < < * > , w 7 > > > & * & * > : : w w w r e 1 : 1 t 8 q q f f h l x z l d l l z ",
"$ $ $ # % % # % % % % & - & % $ # * > * > 1 1 7 1 * $ : : , w w > * * * * $ $ w 1 , r e r e e : * 7 0 q q d q t h h h d q h q h ",
"O O O # & $ $ * * ; ; 6 6 6 6 2 > > : # : , > : 1 > $ : : > > 3 , : > 1 1 * $ , & & > > w 1 e 7 1 6 9 0 q q 0 7 e t 8 8 0 8 9 q ",
"@ O $ $ * $ * * * < 6 ; 9 9 0 6 > : & $ $ > > * 3 w > $ $ , > > , 1 , 7 w > * , , > & > 7 7 e e e 7 8 t t 8 1 7 w w w w w 7 7 7 ",
"* - - & 6 6 ; < < 6 0 0 q q 0 9 1 6 6 6 7 7 e e r e e 7 8 e e 8 e t e 8 e e 8 7 e p 7 7 7 6 7 r e e i i i i i t e e 7 7 7 r i l ",
"9 9 q 0 q q q d d d h h h z z x z j j j j z k k c c c c c c c c b b b K c b k k k k H K K K b K K K ^ K K K ! Q b K K K k k ! ) ",
"d d d d h l l z z z x z z x x z x j t t i c Q ( ( ( ( ( ^ ) ) ) ) ^ ) ) ) ( B ) 1.1.1.1.1.1.1.1.1.1.1.} _ 1.1.1.3.1.1.1.1.1.1.1.",
"d d d d h h h h l z x z l l f h x h t f h c Q ( ( ( ( Q c ( ) ) ,.1.1.1.1.( Q ) _ 1.3.1.1.1.1.,.1.1.1.1.) } ) ) 1.1.1.) 1.1.<._ ",
"; ; ; ; ; ; 2 2 2 2 2 2 2 2 ; 2 6 6 - 9 0 0 9 0 0 0 0 0 0 s d s d d d d s d d d s d h h h h h g g g h h g h d h d d f 0 q d d d ",
"; - ; ; - - ; 6 9 9 6 6 6 6 2 6 6 6 9 0 9 9 9 0 q q 0 9 6 9 q d d d d h h d d d d d l h h h d h x h h l h l z l l h j h h h h f ",
"0 0 0 a a s s s s d d d g g l l l l l l l l x x x v v v v v v Q / Q / / / / / / ( / / ( / ( ( / Q ( ( ( ( ( ( / ( ( Q ( / / Q Q "
};
