/* XPM */
static char *_88ea9ab72ae4e0eac0f23d0a6cf2f488blJ5fATL4fL67IZ[] = {
/* columns rows colors chars-per-pixel */
"96 96 13 1 ",
"  c #6C090E",
". c #14692E",
"X c #0D335A",
"o c #2A254D",
"O c #ED1C24",
"+ c #519C23",
"@ c #61BB2B",
"# c #5FB5B4",
"$ c #67A0A7",
"% c #64AEB1",
"& c #66B6BF",
"* c #B5868F",
"= c white",
/* pixels */
"++++++++++++++++++++++++++++++++++++++++++++++++++++++++++++++++++++++++++++++++++++++++++++++++",
"++++++++++++++++++++++++++++++++++++++++++++++++++++++++++ +++++++++++++++++++++++++++++++++++++",
"++++++++++++++++@++++++++++++++++++++++++++++++++++++++++ @ ++++++++++++++++++++++++++++++++++++",
"+++++++++++++++@+@+++++++++++++++++.++++++++++++++++++++++ ++++++++++++++++++++++++++*++++++++++",
"++++++++++++++++@+++++++++++++++++.@.+++++++++++++++++++++++++++++++++++++++++++++++*@*+++++++++",
"+++++++++++++++++++++++++++++++++++.+++++++++++++++++++++++++++++++++++++++++++++++++*++++++++++",
"++++++++.+++++++++++++++++++++++++++++++++++++++++++++++++++++++++++++++++++++++++++++++++++++++",
"+++++++.@.+++++++++++++*++++++++++++++++++++++++++++++++++++++++++++++++++++++++++++++++++++++++",
"++++++++.+++++++++++++*@*+++++++++++++++++++++++++++++++++++++++++++++++.+++++++++++++++++++++++",
"+++++++++++++++++++++++*+++++++++++++++++++++++++++++++++++++++++++++++.@.++++++++++++++++++++++",
"++++++++++++++++++++++++++++++++++++++++++++++++++++++++++++++++++++++++.+++++++++++++++++++++++",
"++++++++++++++++++++++++++++++++++++++++++++++++++++++++++++++++++++++++++++++++++++++++++++++++",
"+++++++++++++++++++++++++++++++++++++++++++++++++++++.++++++++++++++++++++++++++++++++++++++++++",
"++++++++++++++++++++++++++++++++++++++++++++++++++++.@.+++++++++++++++++++++++++++++++++++++++++",
"+++++++++++++++++++++++++++++++++++++++++++++++++++++.++++++++++++++++++++++++++++++++++++++++++",
"+++++++++++++++++++++++++++++++++++++++++++++++@++++++++++++++++++++++++++++++++++++++++++++++++",
"++++++++++++++++++++++++++++++++++++++++++++++@+@+++++++++++++++++++++++++++++++++++++++++++++++",
"++++++*++++++++++++++++++++++++++++++++++++++++@++++++++++++++++++++++++++++++++++++++++++++++++",
"+++++*@*+++++++++++++ ++++++++++++++++++++++++++++++++++++++++++++++++++++++++++++++++++++++++++",
"++++++*+++++++++++++ @ +++++++++++++++++++++++++++++++++++++++++++++++++++++++++++++++++++++++++",
"+++++++++++++++++++++ ++++++++++++++++++++++++++++++++++++++++++++++++++++++++++++++++++++++++++",
"+++++++++++++++++++++++++++++++++++++++++++++++++++++++++++++++++++++++++++++++++++@++++++++++++",
"++++++++++++++++++++++++++++++++++++++++++++++++++++++++++++++++++++++++++++++++++@+@+++++++++++",
"+++++++++++++++++++++++++++++++++++++++++++++++++++++++++++++++++++++++++++++++++++@++++++++++++",
"++++++++++++++++++++++++++++++++++++++++++++++++++++++++++++++++++++++++++++++++++++++++++++++++",
"+++++++++++++++++++++++++++++++++++++++++ ++++++++++++++++++++++++++++++++++++++++++++++++++++++",
"++++++++++++++++++++++++++++++++++++++++ @ +++++++++++++++++++++++++++++*+++++++++++++++++++++++",
"+++++++++++++++++++++++++++++++.+++++++++ +++++++++++++++++++++++++++++*@*++++++++++++++++++++++",
"++++++++++++++++@+++++++++++++.@.+++++++++++++++++++++++++++++++++++++++*+++++++++++++++++++++++",
"+++++++++++++++@+@+++++++++++++.+++++++++++++++++++++++++++++++++*++++++++++++++++++++++++++++++",
"++++++++++++++++@+++++++++++++++++++++++++++++++++++++++++++++++*@*+++++++++++++++++++++++++++++",
"+++++++++++++++++++++++++++++++++++++++++++++++++++++++++++++++++*++++++++++++++++++++++++++++++",
"++++++++++++++++++++++++++++++++++++++++++++++++++++++++++++++++++++++++++++++++++++++++++++++++",
"++++++++++++++++++++++++++++++++++++++++++++++++++++++++++++++++++++++++++++++++++++++++++++++++",
"++++++++++++++++++++++++++++++++++++++++++++++++++++++++++++++++++++++++++++++++++++++++++++++++",
"++++++++++++++++++++++++++++++++++++++++++++++++++++++++++++++++.+++++++++++++++++++++++++++++++",
"+++++++++++++++++++++++++++++++++++++++++++++++++++++++++++++++.@.++++++++++++++++++++++++++++++",
"++++++++++++++++++++++++++++++++++++++++++++++++++++++++++++++++.+++++++++++++++++++++++++++++++",
"+++++++++.++++++++++++++*+++++++++++++++++++++++++++++++++++++++++++++++++++++++++++++++++++++++",
"++++++++.@.++++++++++++*@*++++++++++++++++++++++++++++++++++++++++++++++++++++++++++++++++++++++",
"+++++++++.++++++++++++++*+++++++++++++++++++++++++++++++++++++++++++++++++++++++++++++++++++++++",
"+++++++++++++++++++++++++++++++++++++++++++++++@++++++++++++++++++++++++++++++++++++++++++++++++",
"++++++++++++++++++++++++++++++++++++++++++++++@+@++++++++++++++++++++++++++++++++++++++.++++++++",
"+++++++++++++++++++++++++++++++++++++++++++++++@++++++++++++++++++++++++++++++++++++++.@.+++++++",
"+++++++++++++++++++++++++++++++++++++++++++++++++++++++++++++++++++++++++++++++++++++++.++++++++",
"++++++++++++++++++++++++++++++++++++++++++++++++++++++++++++++++++++++++++++++++++++++++++++++++",
"+.++++++++++++++++++++++++++++++++++++++++++++++++++++++++++++++++++++++++++++++++++++++++++++++",
".@.+++++++++++++++++++++++++++++++++++++++++++++++++++++++++++++++++++++++++++++++++++++++++++++",
"+.+++++++++++++++++++++++++++++++++++++++++++++++++++++++++++++++++++ ++++++++++++++++++++++++++",
"++++++++++++++++++++++++++++++++++++++++++++++++++++++++++++++++++++ @ +++++++++++++++++++++++++",
"+++++++++++++++++++++++++++++++++++++++++++++++++++++++++++++++++++++ ++++++++++++++++++++++++++",
"++++++++++++++++++++++++++++++++++++++++++++++++++++++++++++++++++++++++++++++++++++++++++++++++",
"+++++++++++++++++++++++ +++++++++++++++++++++*++++++++++++++++++++++++++++++++++++++++++++++++++",
"++++++++++++++++++++++ @ +++++++++++++++++++*@*+++++++++++++++++++++++++++++++++++++++++++++++++",
"+++++++++++++++++++++++ +++++++++++++++++++++*++++++++++++++++++++++++++++++++++++++++++++++++++",
"++++++++++++++++++++++++++++++++++++++++++++++++++++++++++++++++++++++++++++++++++++++++++++++++",
"++++++++++++++++++++++++++++++++++++++++++++++++++++++++++++++++++++++++++++++++++++++++++++++++",
"++++++++++++++++++++++++++++++++++++++++++++++++++++++++++++++++++++++++++++++++++++++++++++++++",
"++++++++++++++++++++++++++++++++++++++++++++++++++++++++++++++++++++++++++++++++++++++++++++++++",
"++++++++++++++++++++++++++++++++++++++++++++++++++++++++++++++.+++++++++++++++++++++++++*+++++++",
"+++++++++++++++++++++++++++++++++++++++++++++++++++++++++++++.@.+++++++++++++++++++++++*@*++++++",
"++++++++++++++++++++++++++++++++++++++++++++++++++++++++++++++.+++++++++++++++++++++++++*+++++++",
"++++++++++++++++++++++++++++++++++.+++++++++++++++++++++++++++++++++++++++++++++++++++++++++++++",
"+++++++++++++++++++++++++++++++++.@.++++++++++++++++++++++++++++++++++++++++++++++++++++++++++++",
"+++++++++++++*++++++++++++++++++++.+++++++++++++++++++++++++++++++++++++++++++++++++++++++++++++",
"++++++++++++*@*+++++++++++++++++++++++++++++++++++++++++++++++++++++++++++++++++++++++++++++++++",
"+++++++++++++*++++++++++++++++++++++++++++++++++++++++++++++++++++++++++++++++++++++++++++++++++",
"++++++++++++++++++++++++++++++++++++++++++++++++++++XXXX++++++++++++++++++++++++++++++++++++++++",
"+++++++++++++++++++++@+++++++++++++++++++++++++++XXXXXXXX+++++++++++++++++++++++++++++++++++++++",
"++++++++++++++++++++@+@++++++++++++++++++++++++XXXo%%%%oXX++++++++++++++++++++++++++++++++++++++",
"+++++++++++++++++++++@++++++++++++++++++++++++XXo##%&#%$oX++++++++++++++++++++++++++++++++++++++",
"++++++++++++++++++++++++++++++++++++++++++++++Xo#&$%##%$oXX+++++++++++++++++++++++++++++++++++++",
"++++++++++++++++++++++++++++++++++++ooooXXX+++X$%%%%%$%$#oX+++++++++++++++++++++ +++++++++++++++",
"++++++++++++++++++++++++++++++++++XXXXXXXoXXX+X$%#&%$&&$$oXX+++++++++++++++++++ @ ++++++++++++++",
"+++++++++++++++++++++++++++++++++XXo###=OO#oX+X$%%&&%%%%&XXX++++++++++++++++++++ +++++++++++++++",
"++++++++++++++++++++++++++++++++XX$$$$%OOO$#X+XX#$%&&&%%$oXX+++++++++++*++++++++++++++++++++++++",
"+++++++.+++++++++++++++++++++++XX$$&&%%OOO$#XX+Xoo#%$$###XX+++++++++++*@*+++++++++++++++++++++++",
"++++++.@.+++++++++++++++++++++XX#$#%%##%&%$##XXXXoo%###oXX+++++++++++++*++++++++++++++++++++++++",
"+++++++.++++++++++++++++++++++Xo#$%%&&&$%%%$##X+XXoooooo++++++++++++++++++++++++++++++++++++++++",
"++++++++++++++++++++++++++++++X##&&#&#&&##%%##X+++XXXXXX++++++++++++++++++++++++++++++++++++++++",
"++++++++++++++++++++++++++++++XX#$&&##&%%%%%##XX+XXooooXXX++++++++++++++++++++++++++++++++++++++",
"+++++++++++++++++++++++++++++++X##$%$#&$&##$##XXXX##$##ooXXXX+++++++++++++++++++++++++++++++++++",
"+++++++++++++++++++++++++++++++Xo#$%##&%&$$$##XX##$$%&%###ooX+++++++++++++++++++++++++++++++++++",
"+++++++++++++++++++++++++++++++XXo$%%##%%####XXX##%&%$%%$$#oXX++++++++++++++++++++++++++++++++++",
"++++++++++++++++++++++++++++++++XXX$%%%%%%##oXXo&&%$%&$%%%#ooX++++++++++++++++++++++++++++++++++",
"++++++++++++++++++++++++++++++++++Xo##XXXXXXXXXoX%&&%%%OOO%oXX++++++++++++++++++++++++++++++++++",
"+++++++++++++++++++++++++++++++++++XXXXoooooo+XXX$$%%%%OOOoXX+++++++++++++++++++++++++++++++++++",
"++++++++++++++++++++++++++++++++++++X++++++++++XXoo#oooOO=oX++++++++++++++++++++++++++++++++++++",
"++++++++++++*++++++++++++.++++++++++++++++++++++XXXXXXXXXXXX++++++++++++++++++++++++++.+++++++++",
"+++++++++++*@*++++++++++.@.++++++++++++++++++++++++++++++++++++++++++++++++++++++++++.@.++++++++",
"++++++++++++*++++++++++++.++++++++++++++++++++++++++++++++++++++++++++++++++++++++++++.+++++++++",
"++++++++++++++++++++++++++++++++++++++++++++++++++++++++++++++++++++++++++++++++++++++++++++++++",
"++++++++++++++++++++++++++++++++++++++++ +++++++++++++++++++++++++++++++++++++++++++++++++++++++",
"+++++++++++++++++++++++++++++++++++++++ @ ++++++++++++++++++++++++++++++++++++++++++++++++++++++",
"++++++++++++++++++++++++++++++++++++++++ +++++++++++++++++++++++++++++++++++++++++++++++++++++++",
"++++++++++++++++++++++++++++++++++++++++++++++++++++++++++++++++++++++++++++++++++++++++++++++++"
};
